<svg width="56" height="56" viewBox="0 0 56 56" fill="none" xmlns="http://www.w3.org/2000/svg">
<path d="M17.5 4.66669V12.8334H25.6667V17.5H17.5V25.6667H12.8333V17.5H4.66666V12.8334H12.8333V4.66669H17.5ZM30.3333 12.8334H51.3333V17.5H30.3333V12.8334ZM25.144 35.0257L18.5453 41.6267L25.5197 48.5987L22.218 51.9004L15.2437 44.9237L8.645 51.527L5.34566 48.2253L11.9443 41.6267L5.719 35.4014L9.02066 32.0997L15.2437 38.325L21.8447 31.7264L25.144 35.0257ZM38.5 32.662H43.176V37.338H38.5V32.662ZM30.3333 39.6667H51.3333V44.3334H30.3333V39.6667ZM38.5 46.662H43.176V51.338H38.5V46.662Z" fill="white"/>
</svg>
