<svg width="56" height="56" viewBox="0 0 56 56" fill="none" xmlns="http://www.w3.org/2000/svg">
<path d="M28 51.3334C24.9358 51.3334 21.9017 50.7298 19.0707 49.5572C16.2398 48.3846 13.6676 46.6659 11.5009 44.4992C7.12501 40.1233 4.66669 34.1884 4.66669 28C4.66669 21.8116 7.12501 15.8767 11.5009 11.5009C15.8767 7.12501 21.8116 4.66669 28 4.66669C40.8334 4.66669 51.3334 14 51.3334 25.6667C51.3334 29.3797 49.8584 32.9407 47.2328 35.5662C44.6073 38.1917 41.0464 39.6667 37.3334 39.6667H33.1334C32.4334 39.6667 31.9667 40.1334 31.9667 40.8334C31.9667 41.0667 32.2 41.3 32.2 41.5334C33.1334 42.7 33.6 44.1 33.6 45.5C33.8334 48.7667 31.2667 51.3334 28 51.3334ZM28 9.33335C23.0493 9.33335 18.3014 11.3 14.8007 14.8007C11.3 18.3014 9.33335 23.0493 9.33335 28C9.33335 32.9507 11.3 37.6987 14.8007 41.1993C18.3014 44.7 23.0493 46.6667 28 46.6667C28.7 46.6667 29.1667 46.2 29.1667 45.5C29.1667 45.0334 28.9334 44.8 28.9334 44.5667C28 43.4 27.5334 42.2334 27.5334 40.8334C27.5334 37.5667 30.1 35 33.3667 35H37.3334C39.8087 35 42.1827 34.0167 43.933 32.2663C45.6834 30.516 46.6667 28.142 46.6667 25.6667C46.6667 16.5667 38.2667 9.33335 28 9.33335ZM15.1667 23.3334C17.0334 23.3334 18.6667 24.9667 18.6667 26.8334C18.6667 28.7 17.0334 30.3334 15.1667 30.3334C13.3 30.3334 11.6667 28.7 11.6667 26.8334C11.6667 24.9667 13.3 23.3334 15.1667 23.3334ZM22.1667 14C24.0334 14 25.6667 15.6334 25.6667 17.5C25.6667 19.3667 24.0334 21 22.1667 21C20.3 21 18.6667 19.3667 18.6667 17.5C18.6667 15.6334 20.3 14 22.1667 14ZM33.8334 14C35.7 14 37.3334 15.6334 37.3334 17.5C37.3334 19.3667 35.7 21 33.8334 21C31.9667 21 30.3334 19.3667 30.3334 17.5C30.3334 15.6334 31.9667 14 33.8334 14ZM40.8334 23.3334C42.7 23.3334 44.3334 24.9667 44.3334 26.8334C44.3334 28.7 42.7 30.3334 40.8334 30.3334C38.9667 30.3334 37.3334 28.7 37.3334 26.8334C37.3334 24.9667 38.9667 23.3334 40.8334 23.3334Z" fill="white"/>
</svg>
