<svg width="56" height="56" viewBox="0 0 56 56" fill="none" xmlns="http://www.w3.org/2000/svg">
<path d="M21 14C21 15.8565 21.7375 17.637 23.0503 18.9497C24.363 20.2625 26.1435 21 28 21C29.8565 21 31.637 20.2625 32.9497 18.9497C34.2625 17.637 35 15.8565 35 14C35 12.1435 34.2625 10.363 32.9497 9.05025C31.637 7.7375 29.8565 7 28 7C26.1435 7 24.363 7.7375 23.0503 9.05025C21.7375 10.363 21 12.1435 21 14Z" stroke="white" stroke-width="4.66667" stroke-linecap="round" stroke-linejoin="round"/>
<path d="M15.9483 21H40.0517C40.5981 20.9999 41.1273 21.1916 41.5469 21.5417C41.9664 21.8918 42.2499 22.378 42.3477 22.9157L46.1673 43.9157C46.2285 44.252 46.2151 44.5976 46.1279 44.9281C46.0408 45.2587 45.8821 45.566 45.6631 45.8284C45.4441 46.0909 45.17 46.302 44.8604 46.4468C44.5508 46.5917 44.2132 46.6667 43.8713 46.6667H12.1287C11.7868 46.6667 11.4492 46.5917 11.1396 46.4468C10.83 46.302 10.5559 46.0909 10.3369 45.8284C10.1179 45.566 9.9592 45.2587 9.87207 44.9281C9.78493 44.5976 9.77148 44.252 9.83267 43.9157L13.6523 22.9157C13.7501 22.378 14.0336 21.8918 14.4531 21.5417C14.8727 21.1916 15.4019 20.9999 15.9483 21Z" stroke="white" stroke-width="4.66667" stroke-linecap="round" stroke-linejoin="round"/>
</svg>
