<svg width="56" height="56" viewBox="0 0 56 56" fill="none" xmlns="http://www.w3.org/2000/svg">
<path d="M12.8146 9.43835C15.9949 6.25802 17.5863 4.66669 19.5626 4.66669C21.5413 4.66669 23.1326 6.25802 26.3129 9.43835L46.5616 29.687C49.7419 32.8697 51.3333 34.4587 51.3333 36.4374C51.3333 38.416 49.7419 40.005 46.5616 43.1854L43.1853 46.5617C40.0049 49.742 38.4136 51.3334 36.4373 51.3334C34.4609 51.3334 32.8672 49.742 29.6869 46.5617L9.43825 26.313C6.25792 23.1304 4.66659 21.5367 4.66659 19.5627C4.66659 17.5887 6.25792 15.995 9.43825 12.8147L12.8146 9.43835Z" stroke="white" stroke-width="3.5"/>
<path d="M36.2506 19.7494L32.9466 23.0534M46.1486 29.6497L42.8492 32.949M26.3502 9.85138L23.0509 13.1507M31.2992 14.8004L26.3502 19.7517M41.1996 24.7007L36.2506 29.6497" stroke="white" stroke-width="3.5" stroke-linecap="round"/>
</svg>
