<svg width="22" height="22" viewBox="0 0 22 22" fill="none" xmlns="http://www.w3.org/2000/svg">
<path fill-rule="evenodd" clip-rule="evenodd" d="M6.55054 6.3855C5.8491 7.07679 5.31301 7.91769 4.98233 8.84534C4.65165 9.77299 4.53495 10.7634 4.64094 11.7425C4.67157 12.0328 4.58564 12.3233 4.40204 12.5503C4.21844 12.7772 3.95222 12.9219 3.66194 12.9525C3.37166 12.9831 3.0811 12.8972 2.85418 12.7136C2.62726 12.53 2.48257 12.2638 2.45194 11.9735C2.31144 10.6656 2.46819 9.34289 2.91046 8.10406C3.35274 6.86523 4.06912 5.7423 5.00614 4.8191C8.45574 1.4179 14.0151 1.4751 17.424 4.9313C20.8329 8.3875 20.8131 13.9491 17.3646 17.3503C15.7683 18.928 13.6247 19.8288 11.3806 19.8649C10.5325 19.8802 9.68669 19.7727 8.86934 19.5459C8.7269 19.5104 8.59301 19.4467 8.47556 19.3586C8.35812 19.2705 8.25949 19.1598 8.18549 19.033C8.1115 18.9062 8.06364 18.7659 8.04472 18.6203C8.02581 18.4747 8.03622 18.3268 8.07536 18.1854C8.1145 18.0439 8.18156 17.9116 8.2726 17.7965C8.36364 17.6813 8.47681 17.5855 8.60544 17.5148C8.73407 17.444 8.87557 17.3997 9.02159 17.3845C9.1676 17.3693 9.31518 17.3835 9.45564 17.4262C10.0693 17.5963 10.7043 17.6767 11.341 17.6649C13.0205 17.6389 14.6249 16.965 15.8191 15.7839C18.3964 13.2429 18.4206 9.075 15.8576 6.4768C13.2946 3.8786 9.12674 3.8445 6.55054 6.3855Z" fill="#5E5E5E"/>
<path fill-rule="evenodd" clip-rule="evenodd" d="M4.36376 12.8645C4.2677 12.9724 4.15133 13.0604 4.02129 13.1233C3.89124 13.1862 3.75007 13.223 3.60584 13.2313C3.46161 13.2397 3.31714 13.2196 3.18068 13.1721C3.04423 13.1247 2.91846 13.0508 2.81056 12.9547L0.918557 11.2717C0.700629 11.0777 0.568695 10.8051 0.551779 10.5138C0.534863 10.2225 0.634351 9.93643 0.828357 9.7185C1.02236 9.50057 1.29499 9.36864 1.58628 9.35172C1.87756 9.33481 2.16363 9.43429 2.38156 9.6283L4.27356 11.3113C4.38148 11.4074 4.46942 11.5237 4.53236 11.6538C4.59531 11.7838 4.63201 11.925 4.64039 12.0692C4.64876 12.2134 4.62865 12.3579 4.58118 12.4944C4.53372 12.6308 4.45983 12.7566 4.36376 12.8645Z" fill="#5E5E5E"/>
<path fill-rule="evenodd" clip-rule="evenodd" d="M2.66202 12.76C2.74869 12.8756 2.85727 12.9729 2.98157 13.0465C3.10587 13.1201 3.24345 13.1685 3.38645 13.189C3.52946 13.2094 3.67508 13.2014 3.81502 13.1656C3.95495 13.1297 4.08645 13.0667 4.20202 12.98L6.40202 11.33C6.63541 11.155 6.7897 10.8944 6.83096 10.6056C6.87222 10.3168 6.79706 10.0234 6.62202 9.79001C6.44697 9.55662 6.18639 9.40232 5.89758 9.36106C5.60877 9.3198 5.31541 9.39496 5.08202 9.57001L2.88202 11.22C2.76645 11.3067 2.66909 11.4153 2.59549 11.5396C2.5219 11.6639 2.4735 11.8014 2.45307 11.9444C2.43264 12.0874 2.44058 12.2331 2.47643 12.373C2.51228 12.5129 2.57534 12.6444 2.66202 12.76ZM11 6.60001C11.2918 6.60001 11.5715 6.7159 11.7778 6.92219C11.9841 7.12848 12.1 7.40827 12.1 7.70001V11.55C12.1 11.8417 11.9841 12.1215 11.7778 12.3278C11.5715 12.5341 11.2918 12.65 11 12.65C10.7083 12.65 10.4285 12.5341 10.2222 12.3278C10.0159 12.1215 9.90002 11.8417 9.90002 11.55V7.70001C9.90002 7.40827 10.0159 7.12848 10.2222 6.92219C10.4285 6.7159 10.7083 6.60001 11 6.60001Z" fill="#5E5E5E"/>
<path fill-rule="evenodd" clip-rule="evenodd" d="M15.4 11.55C15.4 11.8417 15.2841 12.1215 15.0778 12.3278C14.8716 12.5341 14.5918 12.65 14.3 12.65H11C10.7083 12.65 10.4285 12.5341 10.2222 12.3278C10.0159 12.1215 9.90002 11.8417 9.90002 11.55C9.90002 11.2583 10.0159 10.9785 10.2222 10.7722C10.4285 10.5659 10.7083 10.45 11 10.45H14.3C14.5918 10.45 14.8716 10.5659 15.0778 10.7722C15.2841 10.9785 15.4 11.2583 15.4 11.55Z" fill="#5E5E5E"/>
</svg>
