<svg width="16" height="16" viewBox="0 0 16 16" fill="none" xmlns="http://www.w3.org/2000/svg">
<g clip-path="url(#clip0_43_480)">
<path d="M3.66141 2.69668C4.57008 1.78801 5.02475 1.33334 5.58941 1.33334C6.15475 1.33334 6.60941 1.78801 7.51808 2.69668L13.3034 8.48201C14.2121 9.39134 14.6667 9.84534 14.6667 10.4107C14.6667 10.976 14.2121 11.43 13.3034 12.3387L12.3387 13.3033C11.4301 14.212 10.9754 14.6667 10.4107 14.6667C9.84608 14.6667 9.39075 14.212 8.48208 13.3033L2.69675 7.51801C1.78808 6.60868 1.33341 6.15334 1.33341 5.58934C1.33341 5.02534 1.78808 4.57001 2.69675 3.66134L3.66141 2.69668Z" stroke="#71717A"/>
<path d="M10.3573 5.64267L9.4133 6.58667M13.1853 8.47133L12.2426 9.414M7.52864 2.81467L6.58597 3.75733M8.94264 4.22867L7.52864 5.64333M11.7713 7.05733L10.3573 8.47133" stroke="#71717A" stroke-linecap="round"/>
</g>
<defs>
<clipPath id="clip0_43_480">
<rect width="16" height="16" fill="white" transform="translate(16) rotate(90)"/>
</clipPath>
</defs>
</svg>
