<svg width="16" height="16" viewBox="0 0 16 16" fill="none" xmlns="http://www.w3.org/2000/svg">
<path fill-rule="evenodd" clip-rule="evenodd" d="M11.6666 11C11.6665 11.62 11.5092 12.2299 11.2094 12.7726C10.9095 13.3153 10.477 13.7731 9.95215 14.1032C9.42732 14.4333 8.82735 14.625 8.20833 14.6602C7.58931 14.6955 6.97146 14.5732 6.41255 14.3047C5.85365 14.0363 5.37193 13.6306 5.01245 13.1254C4.65297 12.6202 4.42746 12.0321 4.357 11.4161C4.28655 10.8001 4.37345 10.1763 4.60959 9.60302C4.84573 9.02973 5.22338 8.52568 5.70725 8.13799C5.88325 7.99733 5.99992 7.79066 5.99992 7.56466V3.33333C5.99992 2.8029 6.21063 2.29419 6.58571 1.91911C6.96078 1.54404 7.46949 1.33333 7.99992 1.33333C8.53035 1.33333 9.03906 1.54404 9.41413 1.91911C9.78921 2.29419 9.99992 2.8029 9.99992 3.33333V7.56533C9.99992 7.79066 10.1166 7.99733 10.2926 8.13866C10.7217 8.48187 11.0681 8.91729 11.3059 9.41263C11.5438 9.90797 11.667 10.4505 11.6666 11ZM7.99992 2.83333C8.13253 2.83333 8.2597 2.88601 8.35347 2.97977C8.44724 3.07354 8.49992 3.20072 8.49992 3.33333V8.92C8.49992 9.21133 8.69792 9.45866 8.93859 9.62266C9.23296 9.8233 9.4553 10.113 9.573 10.4492C9.6907 10.7855 9.69756 11.1506 9.59258 11.491C9.4876 11.8314 9.2763 12.1293 8.98967 12.3408C8.70304 12.5524 8.35617 12.6665 7.99992 12.6665C7.64367 12.6665 7.2968 12.5524 7.01017 12.3408C6.72354 12.1293 6.51224 11.8314 6.40726 11.491C6.30228 11.1506 6.30914 10.7855 6.42684 10.4492C6.54454 10.113 6.76688 9.8233 7.06125 9.62266C7.30125 9.45866 7.49992 9.21133 7.49992 8.92V3.33333C7.49992 3.20072 7.5526 3.07354 7.64637 2.97977C7.74013 2.88601 7.86731 2.83333 7.99992 2.83333Z" fill="#71717A"/>
</svg>
