<svg width="56" height="56" viewBox="0 0 56 56" fill="none" xmlns="http://www.w3.org/2000/svg">
<path d="M30.586 4.58602C30.7718 4.40007 30.9923 4.25255 31.2351 4.1519C31.4779 4.05126 31.7382 3.99945 32.001 3.99945C32.2638 3.99945 32.5241 4.05126 32.7669 4.1519C33.0097 4.25255 33.2303 4.40007 33.416 4.58602L41.416 12.586C41.791 12.9611 42.0016 13.4697 42.0016 14C42.0016 14.5304 41.791 15.039 41.416 15.414L33.416 23.414C33.041 23.7893 32.5323 24.0002 32.0017 24.0004C31.4712 24.0006 30.9623 23.79 30.587 23.415C30.2117 23.04 30.0008 22.5313 30.0006 22.0007C30.0004 21.4702 30.211 20.9613 30.586 20.586L35.172 16H20.502C17.273 15.9995 14.1691 17.2485 11.8405 19.4855C9.51185 21.7224 8.13917 24.7736 8.01001 28H8.00201C8.1019 30.5909 9.00882 33.0858 10.596 35.136H10.59C10.7478 35.3502 10.8614 35.5936 10.9239 35.8522C10.9865 36.1107 10.9969 36.3791 10.9544 36.6417C10.912 36.9043 10.8176 37.1558 10.6768 37.3815C10.536 37.6071 10.3515 37.8024 10.1343 37.956C9.91706 38.1095 9.67138 38.2181 9.41164 38.2755C9.1519 38.3329 8.88332 38.3379 8.62163 38.2903C8.35993 38.2426 8.11037 38.1432 7.88756 37.9979C7.66475 37.8526 7.47316 37.6643 7.32401 37.444C5.25943 34.7192 4.09796 31.4173 4.00201 28H4.01001C4.14001 23.7122 5.9348 19.6436 9.01388 16.6568C12.093 13.6699 16.2142 11.9996 20.504 12H35.174L30.588 7.41402C30.2131 7.03897 30.0024 6.53035 30.0024 6.00002C30.0024 5.4697 30.2111 4.96108 30.586 4.58602ZM51.994 28H51.986C51.856 32.2878 50.0612 36.3564 46.9822 39.3433C43.9031 42.3302 39.7818 44.0004 35.492 44H20.812L25.4 48.586C25.7643 48.9632 25.9659 49.4684 25.9614 49.9928C25.9568 50.5172 25.7465 51.0188 25.3757 51.3897C25.0048 51.7605 24.5032 51.9708 23.9788 51.9754C23.4544 51.9799 22.9492 51.7783 22.572 51.414L14.572 43.414C14.1971 43.039 13.9864 42.5303 13.9864 42C13.9864 41.4697 14.1971 40.9611 14.572 40.586L22.572 32.586C22.9492 32.2217 23.4544 32.0201 23.9788 32.0247C24.5032 32.0292 25.0048 32.2396 25.3757 32.6104C25.7465 32.9812 25.9568 33.4828 25.9614 34.0072C25.9659 34.5316 25.7643 35.0368 25.4 35.414L20.814 40H35.494C38.7223 39.9995 41.8252 38.75 44.153 36.5132C46.4808 34.2764 47.8529 31.2257 47.982 28H47.992C47.8921 25.4092 46.9852 22.9142 45.398 20.864H45.402C45.2442 20.6499 45.1307 20.4064 45.0681 20.1479C45.0055 19.8894 44.9951 19.6209 45.0376 19.3583C45.08 19.0957 45.1744 18.8442 45.3152 18.6186C45.4561 18.3929 45.6405 18.1976 45.8577 18.0441C46.075 17.8906 46.3206 17.7819 46.5804 17.7245C46.8401 17.6671 47.1087 17.6621 47.3704 17.7098C47.6321 17.7575 47.8817 17.8569 48.1045 18.0022C48.3273 18.1475 48.5189 18.3358 48.668 18.556C50.734 21.2803 51.8969 24.5823 51.994 28Z" fill="white"/>
</svg>
